<svg id="图层一要动" xmlns="http://www.w3.org/2000/svg" viewBox="0 0 1190.55 841.89"><defs><style>.cls-1,.cls-2,.cls-4,.cls-5,.cls-8{fill:none;stroke-miterlimit:10;stroke-width:2.97px;}.cls-1,.cls-2,.cls-4{stroke:#f5ea2b;}.cls-2{stroke-dasharray:3.66 3.66;}.cls-3{fill:#f5ea2b;}.cls-4{stroke-dasharray:3.51 3.51;}.cls-5{stroke:#ed721b;}.cls-6{fill:#ed721b;}.cls-7{fill:#fff;}.cls-8{stroke:#040000;}.cls-9{fill:#040000;}</style></defs><g id="_3.黄线" data-name="3.黄线"><line class="cls-1" x1="334.61" y1="488.95" x2="336.36" y2="488.95"/><line class="cls-2" x1="340.02" y1="488.95" x2="374.8" y2="488.95"/><line class="cls-1" x1="376.63" y1="488.95" x2="378.38" y2="488.95"/><path class="cls-3" d="M387.35,489a44.8,44.8,0,0,0-12.7,7.06l2.56-7.06-2.56-7.07A45.07,45.07,0,0,0,387.35,489Z"/><line class="cls-4" x1="296.77" y1="477.77" x2="254.43" y2="477.77"/><path class="cls-3" d="M245.46,477.77a45.07,45.07,0,0,0,12.7-7.07l-2.56,7.07,2.56,7.06A44.8,44.8,0,0,0,245.46,477.77Z"/><line class="cls-4" x1="242.88" y1="464.3" x2="242.88" y2="382.97"/><path class="cls-3" d="M242.88,374c1.57,4.21,4.24,9.45,7.07,12.69l-7.07-2.55-7.06,2.55C238.65,383.46,241.32,378.22,242.88,374Z"/><line class="cls-4" x1="254.35" y1="369.71" x2="285.23" y2="369.71"/><path class="cls-3" d="M294.19,369.71a44.8,44.8,0,0,0-12.7,7.06l2.56-7.06-2.56-7.07A45.07,45.07,0,0,0,294.19,369.71Z"/><line class="cls-4" x1="377.81" y1="442.8" x2="316.26" y2="442.8"/><path class="cls-3" d="M386.77,442.8c-4.21-1.57-9.45-4.24-12.69-7.07l2.55,7.07-2.55,7.06C377.32,447,382.56,444.36,386.77,442.8Z"/><line class="cls-4" x1="324.57" y1="406.97" x2="388.42" y2="406.97"/><path class="cls-3" d="M397.38,407a44.8,44.8,0,0,0-12.7,7.06l2.56-7.06-2.56-7.06A45,45,0,0,0,397.38,407Z"/><line class="cls-4" x1="402.25" y1="396.08" x2="402.25" y2="304.91"/><polygon class="cls-3" points="407.75 309.08 402.25 306.74 396.75 309.08 402.25 296.04 407.75 309.08"/><line class="cls-4" x1="374.45" y1="288.01" x2="340.13" y2="288.01"/><path class="cls-3" d="M331.17,288A44.6,44.6,0,0,0,343.86,281L341.31,288l2.55,7.07C340.62,292.25,335.39,289.58,331.17,288Z"/><line class="cls-4" x1="326.58" y1="297.76" x2="326.58" y2="331.5"/><path class="cls-3" d="M326.58,340.47a45,45,0,0,0-7.06-12.7l7.06,2.56,7.06-2.56A44.8,44.8,0,0,0,326.58,340.47Z"/><line class="cls-4" x1="237.22" y1="248.46" x2="237.22" y2="282.49"/><path class="cls-3" d="M237.22,291.45c-1.56-4.21-4.23-9.45-7.06-12.69l7.06,2.55,7.06-2.55A45,45,0,0,0,237.22,291.45Z"/><line class="cls-4" x1="226.69" y1="298.98" x2="208.78" y2="298.98"/><path class="cls-3" d="M199.81,299c4.22-1.57,9.46-4.24,12.7-7.07L210,299l2.55,7.06C209.27,303.21,204,300.54,199.81,299Z"/><line class="cls-4" x1="199.81" y1="310.37" x2="199.81" y2="327.63"/><path class="cls-3" d="M199.81,336.6a44.8,44.8,0,0,0-7.06-12.7l7.06,2.56,7.07-2.56A45.07,45.07,0,0,0,199.81,336.6Z"/><path class="cls-4" d="M175.16,411.74c-22.77-.09-80.76.1-80.76.1"/><path class="cls-3" d="M184.12,411.84c-4.2-1.6-9.42-4.31-12.64-7.16l2.5,7.08-2.61,7A45,45,0,0,1,184.12,411.84Z"/><path class="cls-4" d="M186.13,405.25c.21-1.91.11-32.07,0-47.5"/><path class="cls-3" d="M186.13,348.78c1.58,4.21,4.27,9.44,7.11,12.67l-7.07-2.53-7.06,2.59A44.86,44.86,0,0,0,186.13,348.78Z"/></g><g id="_2._橘黄线" data-name="2. 橘黄线"><line class="cls-5" x1="128.23" y1="543.41" x2="128.23" y2="516.4"/><path class="cls-6" d="M128.23,511a27,27,0,0,0,4.24,7.62l-4.24-1.54L124,518.64A27,27,0,0,0,128.23,511Z"/><line class="cls-5" x1="337.47" y1="532.95" x2="337.47" y2="515.11"/><path class="cls-6" d="M337.47,509.73a27,27,0,0,0,4.24,7.62l-4.24-1.54-4.24,1.54A27,27,0,0,0,337.47,509.73Z"/><line class="cls-5" x1="305.37" y1="478.49" x2="305.37" y2="348.57"/><path class="cls-6" d="M305.37,339.61a45,45,0,0,0,7.06,12.7l-7.06-2.56-7.06,2.56A45,45,0,0,0,305.37,339.61Z"/><line class="cls-5" x1="96.98" y1="332.73" x2="172.29" y2="332.73"/><path class="cls-6" d="M181.25,332.73a45,45,0,0,0-12.69,7.06l2.55-7.06-2.55-7.06C171.8,328.5,177,331.17,181.25,332.73Z"/><line class="cls-5" x1="218.23" y1="334.16" x2="284.08" y2="334.16"/><path class="cls-6" d="M293,334.16c-4.21,1.57-9.45,4.24-12.69,7.07l2.55-7.07-2.55-7.06C283.59,329.93,288.83,332.6,293,334.16Z"/><line class="cls-5" x1="300.5" y1="327.57" x2="300.5" y2="276.34"/><path class="cls-6" d="M300.5,267.38c1.56,4.21,4.23,9.45,7.06,12.69l-7.06-2.55-7.07,2.55C296.26,276.83,298.93,271.59,300.5,267.38Z"/><line class="cls-5" x1="267.53" y1="240.72" x2="115.69" y2="240.72"/><path class="cls-6" d="M106.73,240.72a45.07,45.07,0,0,0,12.7-7.07l-2.56,7.07,2.56,7.06A44.8,44.8,0,0,0,106.73,240.72Z"/><line class="cls-5" x1="93.83" y1="246.16" x2="93.83" y2="309.43"/><path class="cls-6" d="M93.83,318.4a45.29,45.29,0,0,0-7.06-12.7l7.06,2.56,7.06-2.56A44.8,44.8,0,0,0,93.83,318.4Z"/><line class="cls-5" x1="307.73" y1="248.67" x2="364.34" y2="248.67"/><path class="cls-6" d="M373.3,248.67c-4.22,1.57-9.45,4.24-12.69,7.07l2.55-7.07-2.55-7.06A44.6,44.6,0,0,0,373.3,248.67Z"/><line class="cls-5" x1="125.93" y1="492.1" x2="125.93" y2="449.76"/><path class="cls-6" d="M125.93,440.79a45.07,45.07,0,0,0,7.07,12.7l-7.07-2.56-7.06,2.56A44.8,44.8,0,0,0,125.93,440.79Z"/><line class="cls-5" x1="205.05" y1="433.05" x2="205.05" y2="353.16"/><path class="cls-6" d="M205.05,344.2c1.56,4.21,4.23,9.45,7.06,12.69l-7.06-2.55L198,356.89C200.81,353.65,203.48,348.41,205.05,344.2Z"/><line class="cls-7" x1="897.6" y1="252.76" x2="995.63" y2="252.33"/><line class="cls-5" x1="897.6" y1="252.76" x2="986.67" y2="252.37"/><path class="cls-6" d="M995.63,252.33A44.79,44.79,0,0,0,983,259.45l2.53-7.08-2.59-7.05A45.08,45.08,0,0,0,995.63,252.33Z"/><line class="cls-5" x1="1003.37" y1="262.22" x2="1003.37" y2="320.61"/><path class="cls-6" d="M1003.37,329.58c-1.57-4.22-4.24-9.46-7.07-12.7l7.07,2.56,7.06-2.56C1007.6,320.12,1004.93,325.36,1003.37,329.58Z"/><line class="cls-5" x1="945.75" y1="382.03" x2="945.75" y2="309.3"/><path class="cls-6" d="M945.75,300.34a45.07,45.07,0,0,0,7.07,12.7l-7.07-2.56L938.69,313A44.8,44.8,0,0,0,945.75,300.34Z"/><line class="cls-5" x1="943.18" y1="281.71" x2="974.05" y2="281.71"/><path class="cls-6" d="M983,281.71a44.8,44.8,0,0,0-12.7,7.06l2.56-7.06-2.56-7.07A45.07,45.07,0,0,0,983,281.71Z"/></g><g id="_1.黑线" data-name="1.黑线"><line class="cls-8" x1="443.24" y1="520.48" x2="443.24" y2="249.11"/><path class="cls-9" d="M443.24,240.15c1.57,4.21,4.24,9.45,7.07,12.69l-7.07-2.55-7.06,2.55C439,249.6,441.68,244.36,443.24,240.15Z"/><line class="cls-8" x1="430.92" y1="211.91" x2="239.95" y2="211.91"/><path class="cls-9" d="M231,211.91c4.21-1.56,9.45-4.23,12.69-7.06l-2.55,7.06,2.55,7.06C240.44,216.15,235.2,213.48,231,211.91Z"/><path class="cls-8" d="M334.61,613.92c-4.45.37-132,1.06-167.32,1.25"/><path class="cls-9" d="M158.32,615.21A45.11,45.11,0,0,0,171,608.08l-2.52,7.08,2.6,7A44.84,44.84,0,0,0,158.32,615.21Z"/><line class="cls-8" x1="221.1" y1="608.12" x2="221.1" y2="573.23"/><path class="cls-9" d="M221.1,564.26a44.8,44.8,0,0,0,7.06,12.7l-7.06-2.56L214,577A45.07,45.07,0,0,0,221.1,564.26Z"/><line class="cls-8" x1="237.44" y1="539.68" x2="405.61" y2="539.68"/><path class="cls-9" d="M414.58,539.68a45.07,45.07,0,0,0-12.7,7.07l2.56-7.07-2.56-7.06A44.8,44.8,0,0,0,414.58,539.68Z"/><line class="cls-8" x1="222.82" y1="537.53" x2="152.46" y2="537.53"/><path class="cls-9" d="M143.49,537.53a44.8,44.8,0,0,0,12.7-7.06l-2.56,7.06,2.56,7.07A45.07,45.07,0,0,0,143.49,537.53Z"/></g></svg>