<svg id="要动" xmlns="http://www.w3.org/2000/svg" xmlns:xlink="http://www.w3.org/1999/xlink" viewBox="0 0 850.39 283.46"><defs><style>.cls-1,.cls-26,.cls-27,.cls-29,.cls-3,.cls-30,.cls-31,.cls-33,.cls-34,.cls-36{fill:none;stroke-miterlimit:10;}.cls-1{stroke:#f5ab18;}.cls-1,.cls-3{stroke-width:1.52px;}.cls-2{fill:#f5ab18;}.cls-3{stroke:#2091c8;}.cls-4{fill:#2091c8;}.cls-10,.cls-11,.cls-12,.cls-13,.cls-14,.cls-15,.cls-16,.cls-17,.cls-18,.cls-19,.cls-20,.cls-21,.cls-22,.cls-23,.cls-24,.cls-25,.cls-5,.cls-6,.cls-7,.cls-8,.cls-9{opacity:0.5;}.cls-5{fill:url(#未命名的渐变_136);}.cls-6{fill:url(#未命名的渐变_136-2);}.cls-7{fill:url(#未命名的渐变_136-3);}.cls-8{fill:url(#未命名的渐变_136-4);}.cls-9{fill:url(#未命名的渐变_136-5);}.cls-10{fill:url(#未命名的渐变_136-6);}.cls-11{fill:url(#未命名的渐变_136-7);}.cls-12{fill:url(#未命名的渐变_136-8);}.cls-13{fill:url(#未命名的渐变_136-9);}.cls-14{fill:url(#未命名的渐变_136-10);}.cls-15{fill:url(#未命名的渐变_136-11);}.cls-16{fill:url(#未命名的渐变_136-12);}.cls-17{fill:url(#未命名的渐变_136-13);}.cls-18{fill:url(#未命名的渐变_136-14);}.cls-19{fill:url(#未命名的渐变_136-15);}.cls-20{fill:url(#未命名的渐变_136-16);}.cls-21{fill:url(#未命名的渐变_136-17);}.cls-22{fill:url(#未命名的渐变_136-18);}.cls-23{fill:url(#未命名的渐变_136-19);}.cls-24{fill:url(#未命名的渐变_136-20);}.cls-25{fill:url(#未命名的渐变_136-21);}.cls-26,.cls-27,.cls-29,.cls-30{stroke:#9ad6f0;}.cls-26,.cls-27{stroke-width:1.01px;}.cls-27{stroke-dasharray:0.96 0.96;}.cls-28{fill:#9ad6f0;}.cls-29,.cls-30{stroke-width:1.12px;}.cls-30{stroke-dasharray:1.06 1.06;}.cls-31{stroke:#f2921a;stroke-dasharray:0.99 0.99;}.cls-31,.cls-33,.cls-34,.cls-36{stroke-width:0.45px;}.cls-32{fill:#f2921a;}.cls-33,.cls-34,.cls-36{stroke:#3484c6;}.cls-34{stroke-dasharray:0.91 0.91;}.cls-35{fill:#3484c6;}.cls-36{stroke-dasharray:0.99 0.99;}.cls-37{fill:#f5c720;}.cls-37,.cls-38,.cls-39{opacity:0.4;}.cls-38{fill:#2dbced;}.cls-39{fill:#ee771d;}</style><linearGradient id="未命名的渐变_136" x1="428.45" y1="183.41" x2="428.45" y2="178.83" gradientUnits="userSpaceOnUse"><stop offset="0" stop-color="#efdda4"/><stop offset="0.15" stop-color="#ead4a0"/><stop offset="0.76" stop-color="#e47d11"/><stop offset="1" stop-color="#d2646f"/></linearGradient><linearGradient id="未命名的渐变_136-2" x1="451.05" y1="183.09" x2="451.05" y2="178.5" xlink:href="#未命名的渐变_136"/><linearGradient id="未命名的渐变_136-3" x1="473.45" y1="183.35" x2="473.45" y2="178.76" xlink:href="#未命名的渐变_136"/><linearGradient id="未命名的渐变_136-4" x1="503.11" y1="183.35" x2="503.11" y2="178.76" xlink:href="#未命名的渐变_136"/><linearGradient id="未命名的渐变_136-5" x1="525.27" y1="183.46" x2="525.27" y2="178.87" xlink:href="#未命名的渐变_136"/><linearGradient id="未命名的渐变_136-6" x1="547.5" y1="183.16" x2="547.5" y2="178.57" xlink:href="#未命名的渐变_136"/><linearGradient id="未命名的渐变_136-7" x1="169.81" y1="385.25" x2="169.81" y2="380.66" gradientTransform="matrix(0.67, 0.16, 0, 1, 472.72, -223.19)" xlink:href="#未命名的渐变_136"/><linearGradient id="未命名的渐变_136-8" x1="160.84" y1="385.87" x2="160.84" y2="382.55" gradientTransform="matrix(0.67, 0.16, 0, 1, 472.72, -223.19)" xlink:href="#未命名的渐变_136"/><linearGradient id="未命名的渐变_136-9" x1="153.28" y1="386.58" x2="153.28" y2="383.73" gradientTransform="matrix(0.67, 0.16, 0, 1, 472.72, -223.19)" xlink:href="#未命名的渐变_136"/><linearGradient id="未命名的渐变_136-10" x1="89.22" y1="197.35" x2="89.22" y2="192.77" xlink:href="#未命名的渐变_136"/><linearGradient id="未命名的渐变_136-11" x1="109.53" y1="197.21" x2="109.53" y2="192.62" xlink:href="#未命名的渐变_136"/><linearGradient id="未命名的渐变_136-12" x1="129.54" y1="197.14" x2="129.54" y2="192.56" xlink:href="#未命名的渐变_136"/><linearGradient id="未命名的渐变_136-13" x1="160.55" y1="197.21" x2="160.55" y2="192.62" xlink:href="#未命名的渐变_136"/><linearGradient id="未命名的渐变_136-14" x1="180.17" y1="197.14" x2="180.17" y2="192.56" xlink:href="#未命名的渐变_136"/><linearGradient id="未命名的渐变_136-15" x1="217.92" y1="166" x2="217.92" y2="161.41" xlink:href="#未命名的渐变_136"/><linearGradient id="未命名的渐变_136-16" x1="227.11" y1="166" x2="227.11" y2="161.41" xlink:href="#未命名的渐变_136"/><linearGradient id="未命名的渐变_136-17" x1="235.4" y1="166" x2="235.4" y2="161.41" xlink:href="#未命名的渐变_136"/><linearGradient id="未命名的渐变_136-18" x1="244.47" y1="165.74" x2="244.47" y2="161.15" xlink:href="#未命名的渐变_136"/><linearGradient id="未命名的渐变_136-19" x1="-324.13" y1="475.94" x2="-324.13" y2="471.35" gradientTransform="matrix(0.67, 0.16, 0, 1, 472.72, -223.19)" xlink:href="#未命名的渐变_136"/><linearGradient id="未命名的渐变_136-20" x1="-317.08" y1="475.77" x2="-317.08" y2="471.18" gradientTransform="matrix(0.67, 0.16, 0, 1, 472.72, -223.19)" xlink:href="#未命名的渐变_136"/><linearGradient id="未命名的渐变_136-21" x1="199.88" y1="197.12" x2="199.88" y2="192.53" xlink:href="#未命名的渐变_136"/></defs><g id="_1.光照" data-name="1.光照"><line class="cls-1" x1="606.55" y1="177.34" x2="587.99" y2="185.95"/><path class="cls-2" d="M583.83,187.88a23.24,23.24,0,0,0,4.38-6l.33,3.83,2.71,2.73A23.18,23.18,0,0,0,583.83,187.88Z"/><line class="cls-1" x1="606.99" y1="185.81" x2="588.44" y2="194.42"/><path class="cls-2" d="M584.27,196.35a23,23,0,0,0,4.38-6l.34,3.83,2.7,2.73A23.16,23.16,0,0,0,584.27,196.35Z"/><line class="cls-1" x1="606.65" y1="195.68" x2="588.09" y2="204.28"/><path class="cls-2" d="M583.93,206.22a23.24,23.24,0,0,0,4.38-6l.33,3.83,2.71,2.73A22.9,22.9,0,0,0,583.93,206.22Z"/><line class="cls-1" x1="368.93" y1="203.96" x2="415.3" y2="221.09"/><path class="cls-2" d="M419.61,222.68a23,23,0,0,0-7.36,1.14l2.49-2.94,0-3.85A23,23,0,0,0,419.61,222.68Z"/><line class="cls-1" x1="368.76" y1="191.14" x2="415.54" y2="208.64"/><path class="cls-2" d="M419.84,210.25a22.69,22.69,0,0,0-7.35,1.11l2.49-2.93,0-3.85A23.1,23.1,0,0,0,419.84,210.25Z"/><line class="cls-1" x1="370.53" y1="177.71" x2="416.36" y2="194.35"/><path class="cls-2" d="M420.68,195.92a22.69,22.69,0,0,0-7.35,1.18l2.46-3V190.3A23,23,0,0,0,420.68,195.92Z"/><line class="cls-1" x1="19.07" y1="208.88" x2="65.44" y2="226.02"/><path class="cls-2" d="M69.74,227.61a23,23,0,0,0-7.35,1.14l2.48-2.94,0-3.85A22.71,22.71,0,0,0,69.74,227.61Z"/><line class="cls-1" x1="18.89" y1="196.06" x2="65.68" y2="213.57"/><path class="cls-2" d="M70,215.18a22.71,22.71,0,0,0-7.36,1.11l2.49-2.93,0-3.85A22.89,22.89,0,0,0,70,215.18Z"/><line class="cls-1" x1="20.66" y1="182.64" x2="66.5" y2="199.28"/><path class="cls-2" d="M70.81,200.84A23,23,0,0,0,63.46,202l2.47-3v-3.84A23.1,23.1,0,0,0,70.81,200.84Z"/><line class="cls-1" x1="314.44" y1="179.57" x2="295.88" y2="188.17"/><path class="cls-2" d="M291.72,190.11a23,23,0,0,0,4.37-6l.34,3.83,2.71,2.73A22.92,22.92,0,0,0,291.72,190.11Z"/><line class="cls-1" x1="312.21" y1="193.74" x2="293.65" y2="202.34"/><path class="cls-2" d="M289.49,204.27a23,23,0,0,0,4.37-6l.34,3.83,2.71,2.73A22.92,22.92,0,0,0,289.49,204.27Z"/><line class="cls-1" x1="309.96" y1="210.86" x2="291.41" y2="219.46"/><path class="cls-2" d="M287.24,221.39a23,23,0,0,0,4.38-6l.33,3.83,2.71,2.73A23.16,23.16,0,0,0,287.24,221.39Z"/></g><g id="_2.空气" data-name="2.空气"><path class="cls-3" d="M525.71,200.46s-19.52,1.38-24.52,5.87c-2.92,2.61-7.89,4.06-11.52,4.81"/><path class="cls-4" d="M485.13,211.86a22.94,22.94,0,0,0,5.8-4.67l-.68,3.79,1.9,3.35A22.81,22.81,0,0,0,485.13,211.86Z"/><path class="cls-3" d="M600.94,202.23s-12.17,3.11-17,6-4,5.95-12.43,6.47c-4,.25-7.48.43-10,.56"/><path class="cls-4" d="M556.91,215.44a23.32,23.32,0,0,0,6.31-4l-1.12,3.68,1.5,3.55A22.89,22.89,0,0,0,556.91,215.44Z"/><path class="cls-3" d="M79.55,195.75s1.29,3,9.67,6.95c7.35,3.45,5.27,2.72,15.28,5.66s20,4.49,30.39,3.45,21.58-1.55,27.45-3.11c4.53-1.19,14.51-2.91,20.89-2.52"/><path class="cls-4" d="M187.72,207.15a22.77,22.77,0,0,0-7.08,2.27l2-3.29-.57-3.81A23,23,0,0,0,187.72,207.15Z"/><path class="cls-3" d="M285.45,203.7s-17-.86-20.55,1.38a137.35,137.35,0,0,1-15.54,8.33c-3.67,1.6-14.73,2.42-21.17,2.24"/><path class="cls-4" d="M223.64,215.09a22.84,22.84,0,0,0,6.85-2.89l-1.69,3.45.91,3.74A22.89,22.89,0,0,0,223.64,215.09Z"/><path class="cls-3" d="M231.06,174.78s1.94-3.63-9.71,5.05c-9.34,6.95-7.53,8.58-11.85,8.69"/><path class="cls-4" d="M204.9,188.37a22.86,22.86,0,0,0,6.58-3.47l-1.38,3.59,1.23,3.64A23.08,23.08,0,0,0,204.9,188.37Z"/></g><g id="_3.人造灯光" data-name="3.人造灯光"><polygon class="cls-5" points="431.13 183.41 425.78 183.41 427.51 178.83 429.13 178.83 431.13 183.41"/><polygon class="cls-6" points="453.73 183.09 448.37 183.09 450.11 178.5 451.73 178.5 453.73 183.09"/><polygon class="cls-7" points="476.13 183.35 470.78 183.35 472.51 178.76 474.13 178.76 476.13 183.35"/><polygon class="cls-8" points="505.79 183.35 500.43 183.35 502.17 178.76 503.78 178.76 505.79 183.35"/><polygon class="cls-9" points="527.95 183.46 522.6 183.46 524.33 178.87 525.95 178.87 527.95 183.46"/><polygon class="cls-10" points="550.18 183.16 544.83 183.16 546.56 178.57 548.18 178.57 550.18 183.16"/><polygon class="cls-11" points="587.75 189.15 584.37 187.65 585.34 183.99 586.41 184.25 587.75 189.15"/><polygon class="cls-12" points="581.3 188.24 578.86 187.16 579.55 184.52 580.33 184.71 581.3 188.24"/><polygon class="cls-13" points="576.08 187.73 573.98 186.8 574.58 184.52 575.25 184.68 576.08 187.73"/><polygon class="cls-14" points="91.9 197.35 86.55 197.35 88.28 192.77 89.9 192.77 91.9 197.35"/><polygon class="cls-15" points="112.21 197.21 106.85 197.21 108.59 192.62 110.21 192.62 112.21 197.21"/><polygon class="cls-16" points="132.22 197.14 126.86 197.14 128.6 192.56 130.21 192.56 132.22 197.14"/><polygon class="cls-17" points="163.23 197.21 157.88 197.21 159.61 192.62 161.23 192.62 163.23 197.21"/><polygon class="cls-18" points="182.85 197.14 177.49 197.14 179.23 192.56 180.85 192.56 182.85 197.14"/><polygon class="cls-19" points="220.6 166 215.24 166 216.98 161.41 218.59 161.41 220.6 166"/><polygon class="cls-20" points="229.79 166 224.44 166 226.17 161.41 227.79 161.41 229.79 166"/><polygon class="cls-21" points="238.08 166 232.72 166 234.46 161.41 236.08 161.41 238.08 166"/><polygon class="cls-22" points="247.14 165.74 241.79 165.74 243.52 161.15 245.14 161.15 247.14 165.74"/><polygon class="cls-23" points="258.05 202.19 254.67 200.7 255.64 197.04 256.72 197.29 258.05 202.19"/><polygon class="cls-24" points="262.76 203.13 259.38 201.64 260.35 197.98 261.43 198.23 262.76 203.13"/><polygon class="cls-25" points="202.55 197.12 197.2 197.12 198.93 192.53 200.55 192.53 202.55 197.12"/></g><g id="_4.新风" data-name="4.新风"><line class="cls-26" x1="518.54" y1="178.49" x2="518.54" y2="179"/><line class="cls-27" x1="518.54" y1="179.96" x2="518.54" y2="191.02"/><line class="cls-26" x1="518.54" y1="191.5" x2="518.54" y2="192"/><path class="cls-28" d="M518.54,195.06a15.36,15.36,0,0,0-2.41-4.33l2.41.87,2.41-.87A15.36,15.36,0,0,0,518.54,195.06Z"/><line class="cls-26" x1="531.53" y1="177.5" x2="531.53" y2="178"/><line class="cls-27" x1="531.53" y1="178.96" x2="531.53" y2="190.02"/><line class="cls-26" x1="531.53" y1="190.5" x2="531.53" y2="191.01"/><path class="cls-28" d="M531.53,194.07a15,15,0,0,0-2.41-4.33l2.41.87,2.41-.87A15.47,15.47,0,0,0,531.53,194.07Z"/><line class="cls-26" x1="542.07" y1="177.58" x2="542.07" y2="178.09"/><line class="cls-27" x1="542.07" y1="179.05" x2="542.07" y2="190.11"/><line class="cls-26" x1="542.07" y1="190.59" x2="542.07" y2="191.1"/><path class="cls-28" d="M542.07,194.16a15.45,15.45,0,0,0-2.42-4.34l2.42.87,2.41-.87A15.18,15.18,0,0,0,542.07,194.16Z"/><line class="cls-26" x1="443.09" y1="178.75" x2="443.09" y2="179.25"/><line class="cls-27" x1="443.09" y1="180.22" x2="443.09" y2="191.27"/><line class="cls-26" x1="443.09" y1="191.75" x2="443.09" y2="192.26"/><path class="cls-28" d="M443.09,195.32a15.62,15.62,0,0,0-2.41-4.33l2.41.87,2.41-.87A15.12,15.12,0,0,0,443.09,195.32Z"/><line class="cls-26" x1="456.94" y1="178.27" x2="456.94" y2="178.78"/><line class="cls-27" x1="456.94" y1="179.74" x2="456.94" y2="190.8"/><line class="cls-26" x1="456.94" y1="191.28" x2="456.94" y2="191.79"/><path class="cls-28" d="M456.94,194.85a15.18,15.18,0,0,0-2.41-4.34l2.41.88,2.42-.88A15.45,15.45,0,0,0,456.94,194.85Z"/><line class="cls-26" x1="466.87" y1="178.45" x2="466.87" y2="178.95"/><line class="cls-27" x1="466.87" y1="179.91" x2="466.87" y2="190.97"/><line class="cls-26" x1="466.87" y1="191.45" x2="466.87" y2="191.96"/><path class="cls-28" d="M466.87,195a15,15,0,0,0-2.41-4.33l2.41.87,2.41-.87A15.47,15.47,0,0,0,466.87,195Z"/><line class="cls-29" x1="169.42" y1="176.07" x2="169.42" y2="176.64"/><line class="cls-30" x1="169.42" y1="177.69" x2="169.42" y2="191.96"/><line class="cls-29" x1="169.42" y1="192.49" x2="169.42" y2="193.05"/><path class="cls-28" d="M169.42,196.45a16.94,16.94,0,0,0-2.67-4.81l2.67,1,2.68-1A17.22,17.22,0,0,0,169.42,196.45Z"/><line class="cls-29" x1="190.1" y1="175.6" x2="190.1" y2="176.16"/><line class="cls-30" x1="190.1" y1="177.22" x2="190.1" y2="191.48"/><line class="cls-29" x1="190.1" y1="192.01" x2="190.1" y2="192.57"/><path class="cls-28" d="M190.1,196a16.94,16.94,0,0,0-2.67-4.81l2.67,1,2.67-1A16.94,16.94,0,0,0,190.1,196Z"/><line class="cls-29" x1="153.67" y1="175.6" x2="153.67" y2="176.16"/><line class="cls-30" x1="153.67" y1="177.22" x2="153.67" y2="191.48"/><line class="cls-29" x1="153.67" y1="192.01" x2="153.67" y2="192.57"/><path class="cls-28" d="M153.67,196a17,17,0,0,0-2.68-4.81l2.68,1,2.67-1A16.94,16.94,0,0,0,153.67,196Z"/></g><g id="_5.小光" data-name="5.小光"><line class="cls-31" x1="684.64" y1="97.47" x2="694.81" y2="107.33"/><path class="cls-32" d="M695.78,108.27a7,7,0,0,0-2.11-.57l1-.49.46-1A6.63,6.63,0,0,0,695.78,108.27Z"/><line class="cls-31" x1="695.57" y1="97.47" x2="705.74" y2="107.33"/><path class="cls-32" d="M706.71,108.27a7,7,0,0,0-2.11-.57l1-.49.47-1A6.38,6.38,0,0,0,706.71,108.27Z"/><line class="cls-31" x1="710.47" y1="97.47" x2="720.65" y2="107.33"/><path class="cls-32" d="M721.61,108.27a7,7,0,0,0-2.1-.57l1-.49.46-1A6.9,6.9,0,0,0,721.61,108.27Z"/><line class="cls-31" x1="728.43" y1="97.47" x2="738.6" y2="107.33"/><path class="cls-32" d="M739.57,108.27a7,7,0,0,0-2.1-.57l1-.49.46-1A6.63,6.63,0,0,0,739.57,108.27Z"/><line class="cls-31" x1="739.64" y1="97.47" x2="749.82" y2="107.33"/><path class="cls-32" d="M750.78,108.27a7,7,0,0,0-2.1-.57l1-.49.46-1A6.9,6.9,0,0,0,750.78,108.27Z"/><line class="cls-31" x1="757.81" y1="97.47" x2="767.98" y2="107.33"/><path class="cls-32" d="M768.94,108.27a6.83,6.83,0,0,0-2.1-.57l1-.49.47-1A6.61,6.61,0,0,0,768.94,108.27Z"/><line class="cls-31" x1="772.68" y1="97.47" x2="782.85" y2="107.33"/><path class="cls-32" d="M783.81,108.27a6.91,6.91,0,0,0-2.1-.57l1-.49.46-1A6.9,6.9,0,0,0,783.81,108.27Z"/><line class="cls-31" x1="796.27" y1="104.11" x2="786.41" y2="114.29"/><path class="cls-32" d="M785.48,115.25a6.69,6.69,0,0,0,.56-2.1l.5,1,1,.46A6.92,6.92,0,0,0,785.48,115.25Z"/><line class="cls-31" x1="796.27" y1="115.04" x2="786.41" y2="125.22"/><path class="cls-32" d="M785.48,126.18a6.69,6.69,0,0,0,.56-2.1l.5,1,1,.46A6.92,6.92,0,0,0,785.48,126.18Z"/><line class="cls-31" x1="796.27" y1="129.95" x2="786.41" y2="140.12"/><path class="cls-32" d="M785.48,141.09A6.67,6.67,0,0,0,786,139l.5,1,1,.46A6.65,6.65,0,0,0,785.48,141.09Z"/><line class="cls-31" x1="796.27" y1="147.91" x2="786.41" y2="158.08"/><path class="cls-32" d="M785.48,159a6.61,6.61,0,0,0,.56-2.1l.5,1,1,.46A6.92,6.92,0,0,0,785.48,159Z"/></g><g id="_6.小空" data-name="6.小空"><line class="cls-33" x1="672.93" y1="113.87" x2="673.43" y2="113.87"/><line class="cls-34" x1="674.34" y1="113.87" x2="683.03" y2="113.87"/><line class="cls-33" x1="683.48" y1="113.87" x2="683.98" y2="113.87"/><path class="cls-35" d="M685.32,113.87a6.89,6.89,0,0,0-1.9,1.06l.38-1.06-.38-1.05A6.62,6.62,0,0,0,685.32,113.87Z"/><line class="cls-33" x1="672.79" y1="118.05" x2="673.29" y2="118.05"/><line class="cls-34" x1="674.2" y1="118.05" x2="682.89" y2="118.05"/><line class="cls-33" x1="683.34" y1="118.05" x2="683.84" y2="118.05"/><path class="cls-35" d="M685.18,118.05a6.41,6.41,0,0,0-1.9,1.06l.38-1.06-.38-1.06A6.41,6.41,0,0,0,685.18,118.05Z"/><line class="cls-33" x1="672.62" y1="122.14" x2="673.11" y2="122.14"/><line class="cls-34" x1="674.03" y1="122.14" x2="682.71" y2="122.14"/><line class="cls-33" x1="683.17" y1="122.14" x2="683.67" y2="122.14"/><path class="cls-35" d="M685,122.14a6.89,6.89,0,0,0-1.9,1.06l.38-1.06-.38-1.06A6.41,6.41,0,0,0,685,122.14Z"/><line class="cls-33" x1="672.62" y1="125.95" x2="673.11" y2="125.95"/><line class="cls-34" x1="674.03" y1="125.95" x2="682.71" y2="125.95"/><line class="cls-33" x1="683.17" y1="125.95" x2="683.67" y2="125.95"/><path class="cls-35" d="M685,126a6.41,6.41,0,0,0-1.9,1.06l.38-1.06-.38-1.06A6.89,6.89,0,0,0,685,126Z"/><line class="cls-33" x1="672.56" y1="129.81" x2="673.06" y2="129.81"/><line class="cls-34" x1="673.97" y1="129.81" x2="682.66" y2="129.81"/><line class="cls-33" x1="683.12" y1="129.81" x2="683.61" y2="129.81"/><path class="cls-35" d="M685,129.81a7,7,0,0,0-1.9,1.06l.38-1.06-.38-1.06A6.54,6.54,0,0,0,685,129.81Z"/><line class="cls-33" x1="672.25" y1="145.98" x2="672.75" y2="145.98"/><line class="cls-34" x1="673.66" y1="145.98" x2="682.35" y2="145.98"/><line class="cls-33" x1="682.8" y1="145.98" x2="683.3" y2="145.98"/><path class="cls-35" d="M684.64,146a6.41,6.41,0,0,0-1.9,1.06l.38-1.06-.38-1.06A6.89,6.89,0,0,0,684.64,146Z"/><line class="cls-33" x1="672.25" y1="152.34" x2="672.75" y2="152.34"/><line class="cls-34" x1="673.66" y1="152.34" x2="682.35" y2="152.34"/><line class="cls-33" x1="682.8" y1="152.34" x2="683.3" y2="152.34"/><path class="cls-35" d="M684.64,152.34a6.89,6.89,0,0,0-1.9,1.06l.38-1.06-.38-1.06A6.41,6.41,0,0,0,684.64,152.34Z"/><line class="cls-33" x1="672.25" y1="158.14" x2="672.75" y2="158.14"/><line class="cls-34" x1="673.66" y1="158.14" x2="682.35" y2="158.14"/><line class="cls-33" x1="682.8" y1="158.14" x2="683.3" y2="158.14"/><path class="cls-35" d="M684.64,158.14a6.41,6.41,0,0,0-1.9,1.06l.38-1.06-.38-1.06A6.89,6.89,0,0,0,684.64,158.14Z"/><line class="cls-33" x1="709.36" y1="197.12" x2="709.36" y2="196.62"/><line class="cls-34" x1="709.36" y1="195.71" x2="709.36" y2="187.02"/><line class="cls-33" x1="709.36" y1="186.57" x2="709.36" y2="186.07"/><path class="cls-35" d="M709.36,184.73a6.41,6.41,0,0,0,1.06,1.9l-1.06-.38-1.06.38A6.89,6.89,0,0,0,709.36,184.73Z"/><line class="cls-33" x1="715.72" y1="196.01" x2="715.72" y2="195.52"/><line class="cls-36" x1="715.72" y1="194.52" x2="715.72" y2="187.06"/><line class="cls-33" x1="715.72" y1="186.57" x2="715.72" y2="186.07"/><path class="cls-35" d="M715.72,184.73a6.89,6.89,0,0,0,1.06,1.9l-1.06-.38-1.06.38A6.41,6.41,0,0,0,715.72,184.73Z"/><line class="cls-33" x1="721.52" y1="197.12" x2="721.52" y2="196.62"/><line class="cls-34" x1="721.52" y1="195.71" x2="721.52" y2="187.02"/><line class="cls-33" x1="721.52" y1="186.57" x2="721.52" y2="186.07"/><path class="cls-35" d="M721.52,184.73a6.41,6.41,0,0,0,1.06,1.9l-1.06-.38-1.06.38A6.89,6.89,0,0,0,721.52,184.73Z"/><line class="cls-33" x1="735.78" y1="197.63" x2="735.78" y2="197.14"/><line class="cls-34" x1="735.78" y1="196.22" x2="735.78" y2="187.54"/><line class="cls-33" x1="735.78" y1="187.08" x2="735.78" y2="186.59"/><path class="cls-35" d="M735.78,185.24a6.41,6.41,0,0,0,1.06,1.9l-1.06-.38-1.06.38A6.65,6.65,0,0,0,735.78,185.24Z"/><line class="cls-33" x1="742.14" y1="197.63" x2="742.14" y2="197.14"/><line class="cls-34" x1="742.14" y1="196.22" x2="742.14" y2="187.54"/><line class="cls-33" x1="742.14" y1="187.08" x2="742.14" y2="186.59"/><path class="cls-35" d="M742.14,185.24a6.89,6.89,0,0,0,1.06,1.9l-1.06-.38-1,.38A6.62,6.62,0,0,0,742.14,185.24Z"/><line class="cls-33" x1="747.94" y1="197.63" x2="747.94" y2="197.14"/><line class="cls-34" x1="747.94" y1="196.22" x2="747.94" y2="187.54"/><line class="cls-33" x1="747.94" y1="187.08" x2="747.94" y2="186.59"/><path class="cls-35" d="M747.94,185.24a6.41,6.41,0,0,0,1.06,1.9l-1.06-.38-1.06.38A6.65,6.65,0,0,0,747.94,185.24Z"/><line class="cls-33" x1="771.75" y1="196.89" x2="771.75" y2="196.4"/><line class="cls-34" x1="771.75" y1="195.48" x2="771.75" y2="186.8"/><line class="cls-33" x1="771.75" y1="186.34" x2="771.75" y2="185.85"/><path class="cls-35" d="M771.75,184.5a6.47,6.47,0,0,0,1.06,1.91l-1.06-.39-1.06.39A7,7,0,0,0,771.75,184.5Z"/><line class="cls-33" x1="778.11" y1="196.89" x2="778.11" y2="196.4"/><line class="cls-34" x1="778.11" y1="195.48" x2="778.11" y2="186.8"/><line class="cls-33" x1="778.11" y1="186.34" x2="778.11" y2="185.85"/><path class="cls-35" d="M778.11,184.5a7,7,0,0,0,1.06,1.91l-1.06-.39-1.06.39A6.47,6.47,0,0,0,778.11,184.5Z"/><line class="cls-33" x1="783.91" y1="196.89" x2="783.91" y2="196.4"/><line class="cls-34" x1="783.91" y1="195.48" x2="783.91" y2="186.8"/><line class="cls-33" x1="783.91" y1="186.34" x2="783.91" y2="185.85"/><path class="cls-35" d="M783.91,184.5a6.47,6.47,0,0,0,1.06,1.91l-1.06-.39-1.06.39A7,7,0,0,0,783.91,184.5Z"/></g><g id="_7.小光2" data-name="7.小光2"><rect class="cls-37" x="679.53" y="100.39" width="112.39" height="1.89"/><rect class="cls-37" x="790.14" y="102.74" width="1.44" height="60"/></g><g id="_8.小空2" data-name="8.小空2"><rect class="cls-38" x="770.93" y="188.65" width="13.41" height="1.74"/><rect class="cls-38" x="732.45" y="188.67" width="19.83" height="1.74"/><rect class="cls-38" x="704.26" y="188.58" width="22.16" height="1.74"/><rect class="cls-38" x="649.77" y="131.95" width="61.47" height="1.74" transform="translate(547.67 813.33) rotate(-90)"/></g><g id="_9.小人" data-name="9.小人"><rect class="cls-39" x="681.19" y="135.16" width="74.85" height="1.82"/><rect class="cls-39" x="681.12" y="103.95" width="74.85" height="1.82"/><rect class="cls-39" x="742.14" y="118.76" width="23.18" height="1.59" transform="translate(873.29 -634.18) rotate(90)"/><rect class="cls-39" x="736.65" y="155.62" width="35.38" height="1.29" transform="translate(910.6 -598.08) rotate(90)"/><rect class="cls-39" x="750.21" y="180.47" width="8.01" height="0.85" transform="translate(935.11 -573.32) rotate(90)"/><rect class="cls-39" x="681.12" y="139.33" width="11.21" height="1.74"/><rect class="cls-39" x="694.91" y="139.42" width="14.62" height="1.74"/><rect class="cls-39" x="694.8" y="163.49" width="21.77" height="1.74"/><rect class="cls-39" x="758.62" y="160.28" width="30.34" height="1.74"/><rect class="cls-39" x="677.2" y="119.61" width="23.18" height="1.59" transform="translate(809.2 -568.38) rotate(90)"/><rect class="cls-39" x="697.31" y="173.96" width="6.02" height="2.76"/><rect class="cls-39" x="706.64" y="174.02" width="6.02" height="2.76"/><rect class="cls-39" x="716.39" y="174.02" width="6.02" height="2.76"/><rect class="cls-39" x="731.86" y="174.09" width="6.02" height="2.76"/><rect class="cls-39" x="741.27" y="173.88" width="6.02" height="2.76"/><rect class="cls-39" x="750.89" y="174.03" width="6.02" height="2.76"/><rect class="cls-39" x="735.55" y="182.23" width="0.87" height="1.67"/><rect class="cls-39" x="745.12" y="182.25" width="0.87" height="1.67"/><rect class="cls-39" x="744.96" y="163.34" width="0.87" height="1.67"/><rect class="cls-39" x="735.67" y="163.33" width="0.87" height="1.67"/><rect class="cls-39" x="745.02" y="153.83" width="0.87" height="1.67"/><rect class="cls-39" x="735.73" y="153.82" width="0.87" height="1.67"/><rect class="cls-39" x="745.01" y="144.48" width="0.87" height="1.67"/><rect class="cls-39" x="735.72" y="144.47" width="0.87" height="1.67"/><rect class="cls-39" x="713.27" y="150.93" width="0.87" height="1.67"/><rect class="cls-39" x="703.98" y="150.92" width="0.87" height="1.67"/><rect class="cls-39" x="707.25" y="128.62" width="0.87" height="1.67"/><rect class="cls-39" x="697.95" y="128.61" width="0.87" height="1.67"/><rect class="cls-39" x="726.07" y="128.7" width="0.87" height="1.67"/><rect class="cls-39" x="716.78" y="128.69" width="0.87" height="1.67"/><rect class="cls-39" x="745.1" y="128.76" width="0.87" height="1.67"/><rect class="cls-39" x="735.81" y="128.75" width="0.87" height="1.67"/><rect class="cls-39" x="726.05" y="119.19" width="0.87" height="1.67"/><rect class="cls-39" x="745.09" y="119.24" width="0.87" height="1.67"/><rect class="cls-39" x="735.8" y="119.23" width="0.87" height="1.67"/><rect class="cls-39" x="726.16" y="109.55" width="0.87" height="1.67"/><rect class="cls-39" x="745.19" y="109.61" width="0.87" height="1.67"/><rect class="cls-39" x="735.9" y="109.6" width="0.87" height="1.67"/><rect class="cls-39" x="697.81" y="109.7" width="0.87" height="1.67"/><rect class="cls-39" x="716.85" y="109.75" width="0.87" height="1.67"/><rect class="cls-39" x="707.56" y="109.74" width="0.87" height="1.67"/><rect class="cls-39" x="697.73" y="119.33" width="0.87" height="1.67"/><rect class="cls-39" x="707.47" y="119.38" width="0.87" height="1.67"/><rect class="cls-39" x="684.85" y="150.81" width="0.87" height="1.67"/><rect class="cls-39" x="757.75" y="152.06" width="2.05" height="0.76"/><rect class="cls-39" x="767.71" y="151.87" width="1.48" height="0.98"/><rect class="cls-39" x="777.07" y="152.02" width="1.44" height="0.64"/><rect class="cls-39" x="786.62" y="151.98" width="1.59" height="0.83"/><rect class="cls-39" x="765.33" y="139.84" width="1.48" height="0.98"/><rect class="cls-39" x="782.92" y="139.99" width="1.44" height="0.64"/><rect class="cls-39" x="757.95" y="127.94" width="2.05" height="0.76"/><rect class="cls-39" x="767.91" y="127.75" width="1.48" height="0.98"/><rect class="cls-39" x="777.27" y="127.9" width="1.44" height="0.64"/><rect class="cls-39" x="786.82" y="127.86" width="1.59" height="0.83"/><rect class="cls-39" x="767.63" y="116.45" width="1.48" height="0.98"/><rect class="cls-39" x="777.16" y="116.43" width="1.48" height="0.98"/><ellipse class="cls-39" cx="706.33" cy="186.27" rx="0.46" ry="0.45"/><ellipse class="cls-39" cx="712.67" cy="186.3" rx="0.46" ry="0.45"/><ellipse class="cls-39" cx="718.87" cy="186.2" rx="0.46" ry="0.45"/><ellipse class="cls-39" cx="725.05" cy="186.25" rx="0.46" ry="0.45"/><rect class="cls-39" x="701.15" y="160.51" width="45.29" height="1.29" transform="translate(884.95 -562.63) rotate(90)"/><ellipse class="cls-39" cx="730.67" cy="186.8" rx="0.46" ry="0.45"/><ellipse class="cls-39" cx="737.19" cy="186.89" rx="0.46" ry="0.45"/><ellipse class="cls-39" cx="743.47" cy="186.99" rx="0.46" ry="0.45"/><ellipse class="cls-39" cx="749.65" cy="186.88" rx="0.46" ry="0.45"/><ellipse class="cls-39" cx="755.89" cy="186.92" rx="0.46" ry="0.45"/><ellipse class="cls-39" cx="773.86" cy="186.93" rx="0.46" ry="0.45"/><ellipse class="cls-39" cx="781.42" cy="186.99" rx="0.46" ry="0.45"/><ellipse class="cls-39" cx="787.3" cy="186.85" rx="0.46" ry="0.45"/><ellipse class="cls-39" cx="762.26" cy="164.42" rx="0.46" ry="0.45"/><ellipse class="cls-39" cx="766.82" cy="164.43" rx="0.46" ry="0.45"/><ellipse class="cls-39" cx="772.93" cy="164.4" rx="0.46" ry="0.45"/><ellipse class="cls-39" cx="778.8" cy="164.36" rx="0.46" ry="0.45"/><ellipse class="cls-39" cx="783.36" cy="164.38" rx="0.46" ry="0.45"/><ellipse class="cls-39" cx="787.44" cy="164.34" rx="0.46" ry="0.45"/><ellipse class="cls-39" cx="787.23" cy="182.33" rx="0.46" ry="0.45"/><ellipse class="cls-39" cx="787.28" cy="175.47" rx="0.46" ry="0.45"/><ellipse class="cls-39" cx="787.37" cy="168.45" rx="0.46" ry="0.45"/><rect class="cls-39" x="696.63" y="196.15" width="1.82" height="1.02"/><rect class="cls-39" x="706.13" y="196.29" width="1.82" height="1.02"/><rect class="cls-39" x="715.47" y="196.31" width="1.82" height="1.02"/><rect class="cls-39" x="725.04" y="196.21" width="1.82" height="1.02"/><rect class="cls-39" x="734.43" y="196.24" width="1.82" height="1.02"/><rect class="cls-39" x="744.05" y="196.22" width="1.82" height="1.02"/><rect class="cls-39" x="753.49" y="196.31" width="1.82" height="1.02"/><rect class="cls-39" x="762.84" y="196.14" width="1.82" height="1.02"/><rect class="cls-39" x="772.43" y="196.18" width="1.82" height="1.02"/><rect class="cls-39" x="781.86" y="196.15" width="1.82" height="1.02"/><rect class="cls-39" x="791.38" y="196.24" width="1.82" height="1.02"/><rect class="cls-39" x="800.66" y="196.25" width="1.82" height="1.02"/><rect class="cls-39" x="800.85" y="184.77" width="1.82" height="1.02" transform="translate(616.47 987.04) rotate(-90)"/><rect class="cls-39" x="800.81" y="175.24" width="1.82" height="1.02" transform="translate(625.97 977.47) rotate(-90)"/><rect class="cls-39" x="800.8" y="165.8" width="1.82" height="1.02" transform="translate(635.39 968.02) rotate(-90)"/><rect class="cls-39" x="800.84" y="156.33" width="1.82" height="1.02" transform="translate(644.91 958.6) rotate(-90)"/><rect class="cls-39" x="800.79" y="146.88" width="1.82" height="1.02" transform="translate(654.31 949.09) rotate(-90)"/><rect class="cls-39" x="800.8" y="127.95" width="1.82" height="1.02" transform="translate(673.25 930.17) rotate(-90)"/><rect class="cls-39" x="800.74" y="118.46" width="1.82" height="1.02" transform="translate(682.68 920.62) rotate(-90)"/><rect class="cls-39" x="800.77" y="99.48" width="1.82" height="1.02" transform="translate(701.68 901.67) rotate(-90)"/></g></svg>