<svg id="要动" xmlns="http://www.w3.org/2000/svg" viewBox="0 0 566.93 283.46"><defs><style>.cls-1,.cls-3,.cls-4,.cls-5,.cls-6{fill:#fff;}.cls-1,.cls-3,.cls-4,.cls-5,.cls-6,.cls-8{stroke:#231815;stroke-linecap:round;stroke-linejoin:round;}.cls-1{stroke-width:0.91px;}.cls-2,.cls-7{font-size:7.19px;font-family:AdobeSongStd-Light-GBpc-EUC-H, Adobe Song Std;}.cls-2,.cls-9{fill:#231815;}.cls-3{stroke-width:0.83px;}.cls-4{stroke-width:0.91px;}.cls-5{stroke-width:1.15px;}.cls-6{stroke-width:1.06px;}.cls-7{fill:#070002;}.cls-10,.cls-8{fill:none;}.cls-8{stroke-width:0.86px;}.cls-10{stroke:#db776a;stroke-miterlimit:10;stroke-width:5.6px;}</style></defs><g id="_3.文字" data-name="3.文字"><rect class="cls-1" x="72.92" y="180.79" width="47.43" height="9.01" rx="4.5"/><text class="cls-2" transform="translate(73.57 188.02)">合作生产小组</text><rect class="cls-3" x="135.34" y="180.96" width="39.48" height="9.01" rx="4.5"/><text class="cls-2" transform="translate(137.43 187.7)">战斗机械厂</text><rect class="cls-4" x="342.82" y="180.97" width="47.48" height="9.01" rx="4.5"/><text class="cls-2" transform="translate(344.91 187.7)">首家液压厂家</text><rect class="cls-5" x="396.44" y="180.97" width="76.27" height="9.01" rx="4.5"/><text class="cls-2" transform="translate(398.54 187.71)">南京工程机械有限公司</text><rect class="cls-6" x="473.76" y="180.97" width="65.17" height="9.01" rx="4.5"/><text class="cls-7" transform="translate(477.15 187.72)">红山科技创新工厂</text></g><g id="_2._黑线1" data-name="2. 黑线1"><line class="cls-8" x1="42.4" y1="200.17" x2="535.02" y2="200.17"/><polygon class="cls-9" points="532.16 203.71 531.57 203.07 534.69 200.17 531.57 197.27 532.16 196.64 535.96 200.17 532.16 203.71"/></g><polyline id="_1._流线1" data-name="1. 流线1" class="cls-10" points="41.35 163.09 42.31 110.97 77.48 108.53 77.38 102.31 94.82 101.9 94.82 94.46 114.84 92.17 115.13 123.34 121.99 124.2 127.71 115.34 149.44 111.62 197.77 136.78 197.77 129.35 226.65 120.77 245.81 137.64 245.81 142.5 250.96 142.79 250.96 101.33 250.96 97.32 296.14 146.51 303.86 146.51 342.75 100.75 347.32 102.75 346.47 133.35 356.47 133.35 357.33 105.33 364.71 101.91 370.68 102.28 373.74 105.4 378.23 105.7 389.74 106.73 394.7 103.04 485.25 103.04 485.82 116.96 504.7 128.97 505.27 136.97 510.42 137.74 511.94 135.07 516.33 130.49 521.28 131.45 521.09 121.15 532.15 117.91 535.96 117.34 536.15 165.19"/></svg>