<svg id="要动" xmlns="http://www.w3.org/2000/svg" viewBox="0 0 426.66 141.73"><defs><style>.cls-1,.cls-6,.cls-7{fill:none;stroke:#231815;stroke-miterlimit:10;}.cls-1{stroke-width:0.81px;stroke-dasharray:4.02 4.02;}.cls-2{fill:#231815;}.cls-3{fill:#bd705e;}.cls-4{fill:#b45a48;}.cls-5{fill:#861b20;}.cls-6,.cls-7{stroke-width:0.96px;}.cls-7{stroke-dasharray:4.75 4.75;}</style></defs><g id="_3._斜线" data-name="3. 斜线"><line class="cls-1" x1="181.81" y1="53.8" x2="211.42" y2="76.03"/><path class="cls-2" d="M179.84,52.33A12,12,0,0,1,181.46,56l.61-2,1.72-1.12A12.55,12.55,0,0,1,179.84,52.33Z"/><line class="cls-1" x1="179.99" y1="64.74" x2="209.61" y2="86.97"/><path class="cls-2" d="M178,63.27a12.06,12.06,0,0,1,1.62,3.64l.61-2L182,63.81A12.55,12.55,0,0,1,178,63.27Z"/><line class="cls-1" x1="179.35" y1="76.16" x2="208.96" y2="98.39"/><path class="cls-2" d="M177.38,74.69A12,12,0,0,1,179,78.32l.6-2,1.73-1.12A12.51,12.51,0,0,1,177.38,74.69Z"/><line class="cls-1" x1="177.53" y1="89.22" x2="207.14" y2="111.45"/><path class="cls-2" d="M175.56,87.75a12,12,0,0,1,1.62,3.63l.6-2,1.73-1.13A12.51,12.51,0,0,1,175.56,87.75Z"/></g><g id="_2._砖块" data-name="2. 砖块"><polygon class="cls-3" points="99.3 53.31 87.01 51.54 87.01 55.08 99.3 53.31"/><polygon class="cls-3" points="87.01 51.54 74.72 53.31 87.01 55.08 87.01 51.54"/><polygon class="cls-4" points="74.72 53.31 74.72 56.84 87.01 55.08 74.72 53.31"/><polygon class="cls-5" points="87.01 58.61 99.3 56.84 87.01 55.08 87.01 58.61"/><polygon class="cls-4" points="74.72 56.84 87.01 58.61 87.01 55.08 74.72 56.84"/><polygon class="cls-5" points="87.01 55.08 99.3 56.84 99.3 53.31 87.01 55.08"/><polygon class="cls-3" points="87.03 55.09 74.74 53.33 74.74 56.86 87.03 55.09"/><polygon class="cls-3" points="74.74 53.33 62.45 55.09 74.74 56.86 74.74 53.33"/><polygon class="cls-4" points="62.45 55.09 62.45 58.63 74.74 56.86 62.45 55.09"/><polygon class="cls-5" points="74.74 60.4 87.03 58.63 74.74 56.86 74.74 60.4"/><polygon class="cls-4" points="62.45 58.63 74.74 60.4 74.74 56.86 62.45 58.63"/><polygon class="cls-5" points="74.74 56.86 87.03 58.63 87.03 55.09 74.74 56.86"/><polygon class="cls-3" points="111.56 55.07 99.27 53.3 99.27 56.84 111.56 55.07"/><polygon class="cls-3" points="99.27 53.3 86.98 55.07 99.27 56.84 99.27 53.3"/><polygon class="cls-4" points="86.98 55.07 86.98 58.6 99.27 56.84 86.98 55.07"/><polygon class="cls-5" points="99.27 60.37 111.56 58.6 99.27 56.84 99.27 60.37"/><polygon class="cls-4" points="86.98 58.6 99.27 60.37 99.27 56.84 86.98 58.6"/><polygon class="cls-5" points="99.27 56.84 111.56 58.6 111.56 55.07 99.27 56.84"/><polygon class="cls-3" points="99.31 56.85 87.02 55.08 87.02 58.61 99.31 56.85"/><polygon class="cls-3" points="87.02 55.08 74.73 56.85 87.02 58.61 87.02 55.08"/><polygon class="cls-4" points="74.73 56.85 74.73 60.38 87.02 58.61 74.73 56.85"/><polygon class="cls-5" points="87.02 62.15 99.31 60.38 87.02 58.61 87.02 62.15"/><polygon class="cls-4" points="74.73 60.38 87.02 62.15 87.02 58.61 74.73 60.38"/><polygon class="cls-5" points="87.02 58.61 99.31 60.38 99.31 56.85 87.02 58.61"/><polygon class="cls-3" points="99.3 67.94 87.01 66.17 87.01 69.7 99.3 67.94"/><polygon class="cls-3" points="87.01 66.17 74.72 67.94 87.01 69.7 87.01 66.17"/><polygon class="cls-4" points="74.72 67.94 74.72 71.47 87.01 69.7 74.72 67.94"/><polygon class="cls-5" points="87.01 73.24 99.3 71.47 87.01 69.7 87.01 73.24"/><polygon class="cls-4" points="74.72 71.47 87.01 73.24 87.01 69.7 74.72 71.47"/><polygon class="cls-5" points="87.01 69.7 99.3 71.47 99.3 67.94 87.01 69.7"/><polygon class="cls-3" points="87.03 69.72 74.74 67.95 74.74 71.49 87.03 69.72"/><polygon class="cls-3" points="74.74 67.95 62.45 69.72 74.74 71.49 74.74 67.95"/><polygon class="cls-4" points="62.45 69.72 62.45 73.25 74.74 71.49 62.45 69.72"/><polygon class="cls-5" points="74.74 75.02 87.03 73.25 74.74 71.49 74.74 75.02"/><polygon class="cls-4" points="62.45 73.25 74.74 75.02 74.74 71.49 62.45 73.25"/><polygon class="cls-5" points="74.74 71.49 87.03 73.25 87.03 69.72 74.74 71.49"/><polygon class="cls-3" points="111.56 69.7 99.27 67.93 99.27 71.46 111.56 69.7"/><polygon class="cls-3" points="99.27 67.93 86.98 69.7 99.27 71.46 99.27 67.93"/><polygon class="cls-4" points="86.98 69.7 86.98 73.23 99.27 71.46 86.98 69.7"/><polygon class="cls-5" points="99.27 75 111.56 73.23 99.27 71.46 99.27 75"/><polygon class="cls-4" points="86.98 73.23 99.27 75 99.27 71.46 86.98 73.23"/><polygon class="cls-5" points="99.27 71.46 111.56 73.23 111.56 69.7 99.27 71.46"/><polygon class="cls-3" points="99.31 71.47 87.02 69.7 87.02 73.24 99.31 71.47"/><polygon class="cls-3" points="87.02 69.7 74.73 71.47 87.02 73.24 87.02 69.7"/><polygon class="cls-4" points="74.73 71.47 74.73 75.01 87.02 73.24 74.73 71.47"/><polygon class="cls-5" points="87.02 76.77 99.31 75.01 87.02 73.24 87.02 76.77"/><polygon class="cls-4" points="74.73 75.01 87.02 76.77 87.02 73.24 74.73 75.01"/><polygon class="cls-5" points="87.02 73.24 99.31 75.01 99.31 71.47 87.02 73.24"/><polygon class="cls-3" points="99.3 98.38 87.01 96.61 87.01 100.14 99.3 98.38"/><polygon class="cls-3" points="87.01 96.61 74.72 98.38 87.01 100.14 87.01 96.61"/><polygon class="cls-4" points="74.72 98.38 74.72 101.91 87.01 100.14 74.72 98.38"/><polygon class="cls-5" points="87.01 103.68 99.3 101.91 87.01 100.14 87.01 103.68"/><polygon class="cls-4" points="74.72 101.91 87.01 103.68 87.01 100.14 74.72 101.91"/><polygon class="cls-5" points="87.01 100.14 99.3 101.91 99.3 98.38 87.01 100.14"/><polygon class="cls-3" points="87.03 100.16 74.74 98.4 74.74 101.93 87.03 100.16"/><polygon class="cls-3" points="74.74 98.4 62.45 100.16 74.74 101.93 74.74 98.4"/><polygon class="cls-4" points="62.45 100.16 62.45 103.7 74.74 101.93 62.45 100.16"/><polygon class="cls-5" points="74.74 105.46 87.03 103.7 74.74 101.93 74.74 105.46"/><polygon class="cls-4" points="62.45 103.7 74.74 105.46 74.74 101.93 62.45 103.7"/><polygon class="cls-5" points="74.74 101.93 87.03 103.7 87.03 100.16 74.74 101.93"/><polygon class="cls-3" points="111.56 100.14 99.27 98.37 99.27 101.91 111.56 100.14"/><polygon class="cls-3" points="99.27 98.37 86.98 100.14 99.27 101.91 99.27 98.37"/><polygon class="cls-4" points="86.98 100.14 86.98 103.67 99.27 101.91 86.98 100.14"/><polygon class="cls-5" points="99.27 105.44 111.56 103.67 99.27 101.91 99.27 105.44"/><polygon class="cls-4" points="86.98 103.67 99.27 105.44 99.27 101.91 86.98 103.67"/><polygon class="cls-5" points="99.27 101.91 111.56 103.67 111.56 100.14 99.27 101.91"/><polygon class="cls-3" points="99.31 101.91 87.02 100.15 87.02 103.68 99.31 101.91"/><polygon class="cls-3" points="87.02 100.15 74.73 101.91 87.02 103.68 87.02 100.15"/><polygon class="cls-4" points="74.73 101.91 74.73 105.45 87.02 103.68 74.73 101.91"/><polygon class="cls-5" points="87.02 107.22 99.31 105.45 87.02 103.68 87.02 107.22"/><polygon class="cls-4" points="74.73 105.45 87.02 107.22 87.02 103.68 74.73 105.45"/><polygon class="cls-5" points="87.02 103.68 99.31 105.45 99.31 101.91 87.02 103.68"/><polygon class="cls-3" points="99.3 83.95 87.01 82.18 87.01 85.71 99.3 83.95"/><polygon class="cls-3" points="87.01 82.18 74.72 83.95 87.01 85.71 87.01 82.18"/><polygon class="cls-4" points="74.72 83.95 74.72 87.48 87.01 85.71 74.72 83.95"/><polygon class="cls-5" points="87.01 89.25 99.3 87.48 87.01 85.71 87.01 89.25"/><polygon class="cls-4" points="74.72 87.48 87.01 89.25 87.01 85.71 74.72 87.48"/><polygon class="cls-5" points="87.01 85.71 99.3 87.48 99.3 83.95 87.01 85.71"/><polygon class="cls-3" points="87.03 85.73 74.74 83.97 74.74 87.5 87.03 85.73"/><polygon class="cls-3" points="74.74 83.97 62.45 85.73 74.74 87.5 74.74 83.97"/><polygon class="cls-4" points="62.45 85.73 62.45 89.27 74.74 87.5 62.45 85.73"/><polygon class="cls-5" points="74.74 91.03 87.03 89.27 74.74 87.5 74.74 91.03"/><polygon class="cls-4" points="62.45 89.27 74.74 91.03 74.74 87.5 62.45 89.27"/><polygon class="cls-5" points="74.74 87.5 87.03 89.27 87.03 85.73 74.74 87.5"/><polygon class="cls-3" points="111.56 85.71 99.27 83.94 99.27 87.47 111.56 85.71"/><polygon class="cls-3" points="99.27 83.94 86.98 85.71 99.27 87.47 99.27 83.94"/><polygon class="cls-4" points="86.98 85.71 86.98 89.24 99.27 87.47 86.98 85.71"/><polygon class="cls-5" points="99.27 91.01 111.56 89.24 99.27 87.47 99.27 91.01"/><polygon class="cls-4" points="86.98 89.24 99.27 91.01 99.27 87.47 86.98 89.24"/><polygon class="cls-5" points="99.27 87.47 111.56 89.24 111.56 85.71 99.27 87.47"/><polygon class="cls-3" points="99.31 87.48 87.02 85.72 87.02 89.25 99.31 87.48"/><polygon class="cls-3" points="87.02 85.72 74.73 87.48 87.02 89.25 87.02 85.72"/><polygon class="cls-4" points="74.73 87.48 74.73 91.02 87.02 89.25 74.73 87.48"/><polygon class="cls-5" points="87.02 92.78 99.31 91.02 87.02 89.25 87.02 92.78"/><polygon class="cls-4" points="74.73 91.02 87.02 92.78 87.02 89.25 74.73 91.02"/><polygon class="cls-5" points="87.02 89.25 99.31 91.02 99.31 87.48 87.02 89.25"/></g><g id="_1.线条" data-name="1.线条"><line class="cls-6" x1="87.02" y1="112.16" x2="87.02" y2="109.79"/><line class="cls-7" x1="87.02" y1="105.04" x2="87.02" y2="59.89"/><line class="cls-6" x1="87.02" y1="57.51" x2="87.02" y2="55.14"/><path class="cls-2" d="M87,52.24a14.45,14.45,0,0,0,2.29,4.11L87,55.52l-2.28.83A14.19,14.19,0,0,0,87,52.24Z"/></g></svg>