<svg id="要动" xmlns="http://www.w3.org/2000/svg" viewBox="0 0 425.2 141.73"><defs><style>.cls-1{fill:#ac7a5a;stroke-width:0.65px;}.cls-1,.cls-2{stroke:#0b0909;stroke-miterlimit:10;}.cls-2{fill:none;stroke-width:0.8px;stroke-dasharray:4.8 4.8;}.cls-3{fill:#0b0909;}</style></defs><g id="_2._木板" data-name="2. 木板"><rect class="cls-1" x="60.9" y="54.2" width="5.49" height="38.67"/><rect class="cls-1" x="70.25" y="54.2" width="5.49" height="38.67"/><rect class="cls-1" x="80.29" y="54.2" width="5.49" height="38.67"/><rect class="cls-1" x="88.86" y="54.2" width="5.49" height="38.67"/><rect class="cls-1" x="98.13" y="54.2" width="5.49" height="38.67"/><rect class="cls-1" x="106.69" y="54.2" width="5.49" height="38.67"/></g><g id="_1.线条" data-name="1.线条"><line class="cls-2" x1="54.86" y1="99.7" x2="111.07" y2="99.7"/><path class="cls-3" d="M113.48,99.7a12.07,12.07,0,0,0-3.41,1.9l.68-1.9-.68-1.9A12.07,12.07,0,0,0,113.48,99.7Z"/><line class="cls-2" x1="54.22" y1="46.96" x2="110.43" y2="46.96"/><path class="cls-3" d="M112.84,47a12.15,12.15,0,0,0-3.42,1.91l.69-1.91-.69-1.9A12.13,12.13,0,0,0,112.84,47Z"/></g></svg>