<svg id="要动" xmlns="http://www.w3.org/2000/svg" viewBox="0 0 1190.55 841.89"><defs><style>.cls-1{font-size:24.09px;stroke-width:0.26px;}.cls-1,.cls-3{fill:#040000;}.cls-1,.cls-2{stroke:#040000;stroke-miterlimit:10;}.cls-1,.cls-4{font-family:AdobeSongStd-Light-GBpc-EUC-H, Adobe Song Std;}.cls-2{fill:none;stroke-width:1.5px;}.cls-4{font-size:27px;fill:#231815;}</style></defs><g id="_9" data-name="9"><text class="cls-1" transform="translate(1028.32 541.79)">休闲阅读区</text><line class="cls-2" x1="729.12" y1="544.02" x2="1181.04" y2="544.02"/><path class="cls-3" d="M729.4,549.66A5.64,5.64,0,1,1,735,544,5.64,5.64,0,0,1,729.4,549.66Z"/><rect class="cls-2" x="1161.19" y="521.29" width="19.85" height="22.74"/><text class="cls-4" transform="translate(1165.09 541.84)">9</text></g><g id="_8" data-name="8"><text class="cls-1" transform="translate(1028.33 441.92)">开放休息区</text><line class="cls-2" x1="619.57" y1="443.98" x2="1180.91" y2="443.98"/><path class="cls-3" d="M619.85,449.62a5.64,5.64,0,1,1,5.64-5.64A5.64,5.64,0,0,1,619.85,449.62Z"/><rect class="cls-2" x="1161.06" y="421.25" width="19.85" height="22.74"/><text class="cls-4" transform="translate(1164.96 441.8)">8</text></g><g id="_7" data-name="7"><text class="cls-1" transform="translate(1028.32 350.13)">开放办公区</text><line class="cls-2" x1="751.34" y1="352.2" x2="1180.91" y2="352.2"/><path class="cls-3" d="M751.62,357.84a5.64,5.64,0,1,1,5.64-5.64A5.64,5.64,0,0,1,751.62,357.84Z"/><rect class="cls-2" x="1161.06" y="329.46" width="19.85" height="22.74"/><text class="cls-4" transform="translate(1164.96 350.01)">7</text></g><g id="_6" data-name="6"><line class="cls-2" x1="751.34" y1="279.59" x2="1180.91" y2="279.59"/><path class="cls-3" d="M751.62,285.23a5.64,5.64,0,1,1,5.64-5.64A5.63,5.63,0,0,1,751.62,285.23Z"/><rect class="cls-2" x="1161.06" y="256.86" width="19.85" height="22.74"/><text class="cls-4" transform="translate(1164.96 277.41)">6</text><text class="cls-1" transform="translate(1100.59 277.41)">楼梯</text></g><g id="_5" data-name="5"><text class="cls-1" transform="translate(1076.5 219.1)">文化墙</text><line class="cls-2" x1="888.25" y1="221.19" x2="1181.04" y2="221.19"/><path class="cls-3" d="M888.53,226.83a5.64,5.64,0,1,1,5.64-5.64A5.64,5.64,0,0,1,888.53,226.83Z"/><rect class="cls-2" x="1161.19" y="198.46" width="19.85" height="22.74"/><text class="cls-4" transform="translate(1165.09 219.01)">5</text></g><g id="_4" data-name="4"><text class="cls-1" transform="translate(45.54 545.1)">私密办公区</text><line class="cls-2" x1="9.51" y1="546.28" x2="396.96" y2="546.28"/><path class="cls-3" d="M396.68,551.92a5.64,5.64,0,1,0-5.64-5.64A5.65,5.65,0,0,0,396.68,551.92Z"/><rect class="cls-2" x="9.51" y="523.54" width="19.85" height="22.74"/><text class="cls-4" transform="translate(13.4 544.1)">4</text></g><g id="_3" data-name="3"><text class="cls-1" transform="translate(45.54 452.09)">半开放办公区</text><line class="cls-2" x1="9.51" y1="454.16" x2="396.96" y2="454.16"/><path class="cls-3" d="M396.68,459.8a5.64,5.64,0,1,0-5.64-5.64A5.65,5.65,0,0,0,396.68,459.8Z"/><rect class="cls-2" x="9.51" y="431.42" width="19.85" height="22.74"/><text class="cls-4" transform="translate(13.4 451.98)">3</text></g><g id="_2" data-name="2"><text class="cls-1" transform="translate(45.54 335.16)">休闲导台</text><line class="cls-2" x1="9.51" y1="337.34" x2="396.96" y2="337.34"/><path class="cls-3" d="M396.68,343a5.64,5.64,0,1,0-5.64-5.64A5.64,5.64,0,0,0,396.68,343Z"/><rect class="cls-2" x="9.51" y="314.61" width="19.85" height="22.74"/><text class="cls-4" transform="translate(13.4 335.16)">2</text></g><g id="_1" data-name="1"><text class="cls-1" transform="translate(45.54 267.84)">开放休闲区</text><line class="cls-2" x1="9.51" y1="270.4" x2="380.88" y2="270.4"/><path class="cls-3" d="M380.59,276A5.64,5.64,0,1,0,375,270.4,5.63,5.63,0,0,0,380.59,276Z"/><rect class="cls-2" x="9.51" y="247.67" width="19.85" height="22.74"/><text class="cls-4" transform="translate(13.4 268.22)">1</text></g></svg>